<svg width="159" height="28" viewBox="0 0 159 28" fill="none" xmlns="http://www.w3.org/2000/svg">
<path d="M0 27.5298V6.76407H5.22523V14.9137H7.1797L13.7212 6.76407H19.5048L11.5274 16.5984L19.9037 27.5298H13.6015L7.1797 18.9884H5.22523V27.5298H0Z" fill="#121412"/>
<path d="M28.9344 28C27.1528 28 25.5706 27.6996 24.1879 27.0988C22.8317 26.4981 21.7281 25.623 20.8772 24.4737C20.0263 23.3244 19.5211 22.0054 19.3615 20.5165H24.7064C24.9723 21.5091 25.4775 22.2796 26.2221 22.8282C26.9933 23.3506 27.8974 23.6118 28.9344 23.6118C30.3704 23.6118 31.5005 23.233 32.3248 22.4755C33.1492 21.718 33.6677 20.5034 33.8804 18.8317H26.5412V15.0704H33.8406C33.6278 13.5815 33.096 12.4845 32.2451 11.7792C31.3941 11.0478 30.2906 10.6821 28.9344 10.6821C27.6315 10.6821 26.6476 10.9695 25.9828 11.5441C25.3446 12.0926 24.9191 12.8371 24.7064 13.7774H19.3615C19.4679 12.393 19.8933 11.1262 20.6379 9.97689C21.409 8.82759 22.486 7.92643 23.8688 7.27342C25.2781 6.62041 26.9667 6.2939 28.9344 6.2939C30.9288 6.2939 32.7104 6.68571 34.2793 7.46933C35.8482 8.25294 37.0714 9.40224 37.9489 10.9172C38.8531 12.4322 39.3051 14.3129 39.3051 16.5592V17.3429C39.3051 19.6937 38.8664 21.6658 37.9888 23.2591C37.1379 24.8264 35.9413 26.0148 34.399 26.8246C32.8567 27.6082 31.0352 28 28.9344 28Z" fill="#121412"/>
<path d="M41.1181 27.5298V6.76407H46.3433V23.22H52.6056V6.76407H57.8707V23.22H64.1729V6.76407H69.3981V27.5298H41.1181Z" fill="#121412"/>
<path d="M78.4965 28C76.9808 28 75.6911 27.7257 74.6274 27.1772C73.5638 26.6026 72.7527 25.8189 72.1943 24.8264C71.6359 23.8338 71.3567 22.7106 71.3567 21.4568C71.3567 19.3672 71.9816 17.8 73.2314 16.7551C74.5078 15.7103 76.4091 15.1879 78.9352 15.1879H85.2374V14.2084C85.2374 12.8501 84.9183 11.8967 84.2801 11.3482C83.6685 10.7997 82.6846 10.5254 81.3285 10.5254C80.1319 10.5254 79.2676 10.7344 78.7358 11.1523C78.204 11.5441 77.8982 12.0404 77.8184 12.6412H72.5533C72.6331 11.4396 73.0186 10.3687 73.71 9.42836C74.428 8.4619 75.4385 7.70441 76.7414 7.15588C78.071 6.58123 79.6665 6.2939 81.5279 6.2939C83.3361 6.2939 84.905 6.55511 86.2346 7.07752C87.5908 7.59993 88.6411 8.44884 89.3857 9.62426C90.1303 10.7736 90.5025 12.3277 90.5025 14.2868V22.2404C90.5025 23.3375 90.5158 24.304 90.5424 25.1398C90.5956 25.9495 90.6754 26.7462 90.7817 27.5298H85.8756C85.7693 26.9552 85.7028 26.5242 85.6762 26.2369C85.6762 25.9234 85.6762 25.4663 85.6762 24.8655C85.1178 25.7014 84.2402 26.4328 83.0436 27.0597C81.847 27.6866 80.3313 28 78.4965 28ZM80.1319 24.0036C80.9828 24.0036 81.7938 23.8599 82.565 23.5726C83.3627 23.2591 84.0009 22.789 84.4796 22.1621C84.9848 21.5091 85.2374 20.6863 85.2374 19.6937V18.7142H79.9324C78.9219 18.7142 78.1242 18.9493 77.5392 19.4194C76.9808 19.8635 76.7016 20.4773 76.7016 21.2609C76.7016 22.0968 76.9941 22.7628 77.5791 23.2591C78.1641 23.7554 79.015 24.0036 80.1319 24.0036Z" fill="#121412"/>
<path d="M105.588 27.5298V19.8896C104.976 20.2553 104.245 20.5818 103.394 20.8691C102.543 21.1564 101.506 21.3001 100.283 21.3001C97.7033 21.3001 95.7621 20.6993 94.4592 19.4978C93.1562 18.2701 92.5047 16.3764 92.5047 13.8166V6.76407H97.7698V13.2289C97.7698 14.5871 98.049 15.5405 98.6074 16.0891C99.1924 16.6376 100.216 16.9119 101.679 16.9119C102.689 16.9119 103.514 16.7943 104.152 16.5592C104.817 16.3242 105.295 16.1021 105.588 15.8932V6.76407H110.853V27.5298H105.588Z" fill="#121412"/>
<path d="M139.096 27.5298V6.76407H144.322V14.9137H146.276L152.817 6.76407H158.601L150.624 16.5984L159 27.5298H152.698L146.276 18.9884H144.322V27.5298H139.096Z" fill="#121412"/>
<path d="M121.166 27.8077C119.216 27.509 117.583 26.8265 116.267 25.7601C114.952 24.6937 114.017 23.3372 113.464 21.6906C112.912 20.0313 112.802 18.1621 113.132 16.0827C113.548 13.4616 114.243 11.1091 115.218 9.02522C116.207 6.93075 117.413 5.1727 118.834 3.75108C120.258 2.31686 121.828 1.28583 123.544 0.657995C125.275 0.0195239 127.089 -0.154302 128.988 0.136516C130.964 0.439124 132.603 1.12263 133.906 2.18703C135.221 3.2534 136.155 4.61621 136.706 6.27547C137.271 7.93669 137.388 9.80695 137.058 11.8863C136.639 14.52 135.936 16.8842 134.946 18.9786C133.971 21.0625 132.773 22.8152 131.352 24.2368C129.943 25.6604 128.368 26.6842 126.626 27.3081C124.897 27.9339 123.077 28.1005 121.166 27.8077ZM118.208 16.7634C118.002 18.0614 118.016 19.2125 118.251 20.2165C118.501 21.21 118.945 22.0138 119.583 22.6279C120.222 23.242 121.035 23.6247 122.023 23.776C123.1 23.9411 124.163 23.7425 125.212 23.1802C126.275 22.6073 127.26 21.7448 128.165 20.5927C129.071 19.4406 129.855 18.0633 130.516 16.4607C131.178 14.8582 131.661 13.0992 131.965 11.1837C132.171 9.88574 132.156 8.741 131.919 7.74951C131.682 6.75803 131.245 5.95523 130.606 5.34111C129.968 4.727 129.155 4.34429 128.167 4.19299C127.089 4.02793 126.025 4.23283 124.974 4.80769C123.926 5.36995 122.941 6.23245 122.021 7.3952C121.115 8.54731 120.325 9.92365 119.651 11.5242C118.991 13.1141 118.51 14.8605 118.208 16.7634Z" fill="#121412"/>
</svg>
